<svg id="Logos" xmlns="http://www.w3.org/2000/svg" viewBox="0 0 1750.31 314.72"><path d="M187.32 101.61a38.22 38.22 0 0124.09 58.91L227 176.13a60.22 60.22 0 00-39.7-96.95z" fill="#239037"/><path d="M200.72 171a38.06 38.06 0 01-58.91-32 38.18 38.18 0 0130.51-37.43V79.2a60.17 60.17 0 1044 107.48z" fill="#fff"/><path fill="none" stroke="#fff" stroke-miterlimit="10" stroke-width=".87" d="M273.8 70.26v173.22"/><path d="M125.93 218.28h-6v-3.87h16.45v3.87h-6V235h-4.42zm19.81 9.37h-3.21V235h-4.4v-20.59h9.65c4.3 0 6.93 2.82 6.93 6.65a5.91 5.91 0 01-4.51 6.12l4.63 7.86h-5zm1.39-9.47h-4.6v5.69h4.6a2.86 2.86 0 100-5.69zm23.97 13.3h-9.21l-1.3 3.56h-4.83l8-20.63h5.51L177.2 235h-4.8zm-8-3.8h6.84l-3.4-9.46zm13.54-2.94a10.44 10.44 0 0110.83-10.67 9.5 9.5 0 018.78 5l-3.77 1.93a5.66 5.66 0 00-5-3c-3.59 0-6.31 2.87-6.31 6.77s2.72 6.77 6.31 6.77a5.59 5.59 0 005-3l3.77 1.83a9.57 9.57 0 01-8.78 5.07 10.44 10.44 0 01-10.83-10.7zm22.67 4.05a9 9 0 006.56 2.79c2.41 0 3.59-1.15 3.59-2.32 0-1.55-1.8-2.08-4.18-2.63-3.37-.78-7.7-1.7-7.7-6.31 0-3.43 3-6.22 7.83-6.22a11.47 11.47 0 018 2.88l-2.41 3.21a8.81 8.81 0 00-5.9-2.25c-2 0-3 .86-3 2.1 0 1.39 1.74 1.82 4.12 2.38 3.4.77 7.73 1.8 7.73 6.37 0 3.78-2.69 6.62-8.26 6.62a11.88 11.88 0 01-8.75-3.28zm17.13-14.38h4.39V235h-4.39zm8.94 14.38a9 9 0 006.55 2.79c2.42 0 3.59-1.15 3.59-2.32 0-1.55-1.79-2.08-4.17-2.63-3.37-.78-7.7-1.7-7.7-6.31 0-3.43 3-6.22 7.82-6.22a11.45 11.45 0 018 2.88l-2.44 3.21a8.83 8.83 0 00-5.91-2.25c-2 0-3 .86-3 2.1 0 1.39 1.73 1.82 4.11 2.38 3.41.77 7.74 1.8 7.74 6.37 0 3.78-2.7 6.62-8.26 6.62a11.9 11.9 0 01-8.76-3.28zm79.56-99.39c0-24.6 18.6-41.4 42.6-41.4 17.64 0 27.84 9.6 33.48 19.56l-14.64 7.2a21.69 21.69 0 00-18.84-11.64c-14.52 0-25.08 11.16-25.08 26.28s10.56 26.27 25.08 26.27A21.47 21.47 0 00366.38 144l14.62 7.11c-5.76 10-15.84 19.68-33.48 19.68-23.98 0-42.58-16.79-42.58-41.39zm77.25 0c0-24.12 17.63-41.4 41.75-41.4s41.88 17.28 41.88 41.4-17.64 41.39-41.88 41.39-41.75-17.28-41.75-41.39zm66.11 0c0-15-9.6-26.28-24.36-26.28S399.7 114.4 399.7 129.4s9.48 26.27 24.24 26.27 24.36-11.4 24.36-26.27zm95.86 39.95v-56l-22.56 56h-7.44l-22.56-56v56h-17v-80h23.88l19.44 48.36 19.44-48.36h24v80zm30.26 0v-80h37.44c17.4 0 26.88 11.76 26.88 25.8s-9.6 25.8-26.88 25.8h-20.4v28.43zm46.92-54.23c0-6.72-5-10.8-11.76-10.8h-18.12v21.6h18.12c6.72 0 11.76-4.2 11.76-10.8zm73.44 54.23l-4.92-13.56h-34.32l-5 13.56h-19.48l31-80h21.36l30.84 80zm-22.08-63l-12.48 34.45h25zm41.2 51.72l9.24-13a35.09 35.09 0 0025.44 10.8c9.36 0 13.92-4.32 13.92-8.88 0-14.15-46.08-4.44-46.08-34.55 0-13.32 11.52-24.36 30.36-24.36 12.72 0 23.28 3.84 31.2 11.16l-9.48 12.48a34.38 34.38 0 00-23.28-8.72c-7.32 0-11.4 3.24-11.4 8 0 12.72 46 4.2 46 34.07 0 14.64-10.44 25.68-32 25.68-15.44.04-26.48-5.12-33.92-12.68zm68.19 0l9.24-13a35.09 35.09 0 0025.44 10.8c9.36 0 13.92-4.32 13.92-8.88 0-14.15-46.08-4.44-46.08-34.55 0-13.32 11.52-24.36 30.36-24.36 12.72 0 23.28 3.84 31.2 11.16l-9.48 12.48a34.38 34.38 0 00-23.28-8.72c-7.32 0-11.4 3.24-11.4 8 0 12.72 46 4.2 46 34.07 0 14.64-10.44 25.68-32 25.68-15.44.04-26.48-5.12-33.92-12.68zm104.52 11.28v-80h17v80zm85.08 0l-38.16-52.19v52.19h-17v-80H934l37.08 50.27v-50.3h17v80zm29.48 0v-80h56.64v15h-39.6v16.92H1057v15h-38.76v33.11zm60.48-39.95c0-24.12 17.64-41.4 41.76-41.4s41.88 17.28 41.88 41.4-17.64 41.39-41.88 41.39-41.76-17.28-41.76-41.39zm66.12 0c0-15-9.6-26.28-24.36-26.28s-24.24 11.28-24.24 26.28 9.48 26.27 24.24 26.27 24.36-11.4 24.36-26.27zm71.5 39.95l-15.72-28.43h-12.48v28.43h-17v-80h37.44c16.68 0 26.88 10.92 26.88 25.8 0 14.16-8.88 21.72-17.52 23.76l18 30.47zm1.68-54.23c0-6.72-5.16-10.8-12-10.8h-17.88v21.6H1189c6.79 0 12-4.08 12-10.8zm96.57 54.23v-56l-22.56 56h-7.44l-22.56-56v56h-17v-80h23.88l19.44 48.36 19.44-48.36h24v80zm85.04 0l-4.92-13.56h-34.31l-5 13.56h-19.44l31-80h21.36l30.83 80zm-22.07-63L1348 140.8h25zm54.1 63v-65h-23.4v-15H1455v15h-23.28v65zm46.02 0v-80h17v80zm25.72-39.95c0-24.6 18.6-41.4 42.59-41.4 17.64 0 27.84 9.6 33.48 19.56l-14.64 7.2a21.69 21.69 0 00-18.84-11.64c-14.52 0-25.07 11.16-25.07 26.28s10.55 26.27 25.07 26.27a21.47 21.47 0 0018.84-11.67l14.64 7.07c-5.76 10-15.84 19.68-33.48 19.68-23.99.04-42.59-16.75-42.59-41.35zm77.53 28.67l9.24-13a35.09 35.09 0 0025.44 10.8c9.36 0 13.92-4.32 13.92-8.88 0-14.15-46.08-4.44-46.08-34.55 0-13.32 11.52-24.36 30.36-24.36 12.72 0 23.28 3.84 31.2 11.16l-9.48 12.48a34.38 34.38 0 00-23.28-8.76c-7.32 0-11.4 3.24-11.4 8 0 12.72 46 4.2 46 34.07 0 14.64-10.44 25.68-32 25.68-15.44.08-26.48-5.08-33.92-12.64z" fill="#fff"/><path d="M310.56 235.11v-34.78h6.09v34.78zm29.26 0v-15.75c0-3.91-2-5.21-5.05-5.21a8.26 8.26 0 00-6.46 3.39v17.57h-5.46v-25.19h5.46v3.44a11.91 11.91 0 018.85-4.06c5.42 0 8.13 2.92 8.13 8.08v17.73zm12.51 0v-20.39h-4.17v-4.8h4.17v-1.4c0-5.48 3.17-8.71 8-8.71a8.17 8.17 0 016 2.19l-2.13 3.39a4.1 4.1 0 00-2.92-1.1c-2.13 0-3.48 1.41-3.48 4.23v1.4h5.1v4.8h-5.1v20.39zm11.77-12.62c0-7.2 4.95-13.19 12.92-13.19s13 6 13 13.19-4.89 13.24-13 13.24-12.92-5.99-12.92-13.24zm20.21 0c0-4.43-2.61-8.34-7.29-8.34s-7.24 3.91-7.24 8.34 2.6 8.39 7.24 8.39 7.29-3.88 7.29-8.39zm10 12.62v-25.19h5.47v3.71a10.72 10.72 0 018.17-4.28v5.42a8.39 8.39 0 00-1.72-.15 8.67 8.67 0 00-6.45 3.33v17.16zm47.5 0v-16.43c0-2.71-1.2-4.53-4.12-4.53a7.66 7.66 0 00-5.83 3.33v17.63h-5.46v-16.43c0-2.71-1.2-4.53-4.17-4.53a7.62 7.62 0 00-5.78 3.39v17.57H411v-25.19h5.47v3.44a10.88 10.88 0 018.18-4.06c3.74 0 6 1.87 6.87 4.64a10.65 10.65 0 018.48-4.64c4.63 0 7.23 2.5 7.23 7.61v18.2zm26.65 0v-2.72a10.62 10.62 0 01-8.13 3.34c-4.11 0-8.74-2.76-8.74-8.34 0-5.79 4.63-8.19 8.74-8.19 3.39 0 6.3 1.1 8.13 3.24v-3.76c0-2.92-2.4-4.69-5.89-4.69a10.26 10.26 0 00-7.44 3.18l-2.24-3.81a14.94 14.94 0 0110.57-4.06c5.57 0 10.46 2.34 10.46 9.12v16.69zm0-5.74v-3.81a7.37 7.37 0 00-6-2.6c-3.07 0-5.36 1.77-5.36 4.53s2.29 4.49 5.36 4.49a7.37 7.37 0 006-2.61zm12.3-.1v-14.55h-4.16v-4.8h4.16V203h5.47v6.88h5.1v4.8h-5.1v13.19c0 1.72.83 3 2.39 3a3.54 3.54 0 002.45-.88l1.3 4.12c-1 .93-2.6 1.61-5.15 1.61-4.22.01-6.46-2.28-6.46-6.45zm13.72-25.81a3.42 3.42 0 013.39-3.39 3.39 3.39 0 010 6.78 3.42 3.42 0 01-3.39-3.39zm.68 31.65v-25.19h5.47v25.19zm9.56-12.62c0-7.2 4.95-13.19 12.91-13.19s13 6 13 13.19-4.9 13.24-13 13.24-12.91-5.99-12.91-13.24zm20.2 0c0-4.43-2.6-8.34-7.29-8.34s-7.24 3.91-7.24 8.34 2.61 8.39 7.24 8.39 7.29-3.88 7.29-8.39zm26.98 12.62v-15.75c0-3.91-2-5.21-5-5.21a8.26 8.26 0 00-6.46 3.39v17.57h-5.46v-25.19h5.46v3.44a11.91 11.91 0 018.85-4.06c5.42 0 8.12 2.92 8.12 8.08v17.73zm21.34 1.04l12.34-36.86h4.06l-12.34 36.86zm32.43-1.04v-34.78h6.1v29.41h15.3v5.37zm23.46-12.62c0-7.2 4.94-13.19 12.91-13.19s13 6 13 13.19-4.89 13.24-13 13.24-12.91-5.99-12.91-13.24zm20.2 0c0-4.43-2.6-8.34-7.29-8.34s-7.24 3.91-7.24 8.34 2.61 8.39 7.24 8.39 7.29-3.88 7.29-8.39zm8.51 0c0-7.61 5.37-13.19 13-13.19 4.89 0 7.86 2.08 9.63 4.48l-3.59 3.34a6.71 6.71 0 00-5.78-3c-4.58 0-7.6 3.44-7.6 8.34s3 8.39 7.6 8.39a6.83 6.83 0 005.78-3l3.59 3.34c-1.77 2.4-4.74 4.48-9.63 4.48-7.63.06-13-5.52-13-13.18zm41.77 12.62v-2.72a10.61 10.61 0 01-8.12 3.34c-4.12 0-8.75-2.76-8.75-8.34 0-5.79 4.63-8.19 8.75-8.19 3.38 0 6.3 1.1 8.12 3.24v-3.76c0-2.92-2.4-4.69-5.88-4.69a10.28 10.28 0 00-7.45 3.18l-2.28-3.81a15 15 0 0110.57-4.06c5.57 0 10.46 2.34 10.46 9.12v16.69zm0-5.74v-3.81a7.35 7.35 0 00-6-2.6c-3.07 0-5.36 1.77-5.36 4.53s2.29 4.49 5.36 4.49a7.36 7.36 0 006-2.61zm12.3-.1v-14.55h-4.16v-4.8h4.16V203h5.47v6.88h5.1v4.8h-5.1v13.19c0 1.72.83 3 2.4 3a3.49 3.49 0 002.44-.88l1.3 4.12c-1 .93-2.6 1.61-5.15 1.61-4.22.01-6.46-2.28-6.46-6.45zm13.73-25.81a3.39 3.39 0 113.38 3.39 3.41 3.41 0 01-3.38-3.39zm.67 31.65v-25.19h5.47v25.19zm9.56-12.62c0-7.2 5-13.19 12.91-13.19s13 6 13 13.19-4.9 13.24-13 13.24-12.91-5.99-12.91-13.24zm20.2 0c0-4.43-2.6-8.34-7.29-8.34s-7.23 3.91-7.23 8.34 2.6 8.39 7.23 8.39 7.29-3.88 7.29-8.39zm26.98 12.62v-15.75c0-3.91-2-5.21-5-5.21a8.26 8.26 0 00-6.46 3.39v17.57h-5.46v-25.19h5.46v3.44a11.91 11.91 0 018.85-4.06c5.42 0 8.13 2.92 8.13 8.08v17.73zm33.32 0V205.7h-10.52v-5.37H833v5.37h-10.54v29.41zm14.42-12.62c0-7.3 5.31-13.19 12.75-13.19s12.39 5.79 12.39 13.71v1.3h-19.41a7.62 7.62 0 008 6.94 10.64 10.64 0 007.14-2.77l2.49 3.6a14.61 14.61 0 01-10.2 3.65c-7.54 0-13.16-5.26-13.16-13.24zm12.75-8.71c-4.68 0-6.82 3.6-7.08 6.68h14.16a6.73 6.73 0 00-7.08-6.68zm15.19 8.71c0-7.61 5.36-13.19 13-13.19 4.9 0 7.87 2.08 9.64 4.48l-3.6 3.34a6.7 6.7 0 00-5.77-3c-4.59 0-7.61 3.44-7.61 8.34s3 8.39 7.61 8.39a6.82 6.82 0 005.77-3l3.6 3.34c-1.77 2.4-4.74 4.48-9.64 4.48-7.64.06-13-5.52-13-13.18zm43.03 12.62v-15.85c0-3.91-2-5.11-5.1-5.11a8.42 8.42 0 00-6.46 3.39v17.57h-5.47v-34.78h5.47v13a12 12 0 018.9-4.06c5.42 0 8.12 2.81 8.12 8v17.83zm28.18 0v-15.75c0-3.91-2-5.21-5.05-5.21a8.26 8.26 0 00-6.46 3.39v17.57H913v-25.19h5.46v3.44a11.91 11.91 0 018.85-4.06c5.42 0 8.12 2.92 8.12 8.08v17.73zm9.7-12.62c0-7.2 5-13.19 12.91-13.19s13 6 13 13.19-4.9 13.24-13 13.24-12.91-5.99-12.91-13.24zm20.2 0c0-4.43-2.6-8.34-7.29-8.34s-7.23 3.91-7.23 8.34 2.6 8.39 7.23 8.39 7.29-3.88 7.29-8.39zm10.06 12.62v-34.78h5.47v34.78zm9.8-12.62c0-7.2 4.94-13.19 12.91-13.19s13 6 13 13.19-4.89 13.24-13 13.24-12.91-5.99-12.91-13.24zm20.2 0c0-4.43-2.61-8.34-7.29-8.34s-7.24 3.91-7.24 8.34 2.61 8.39 7.24 8.39 7.29-3.88 7.29-8.39zm9.89 19.08l2.55-4c2 2.35 4.63 3.23 8 3.23 3.59 0 7.44-1.67 7.44-6.83v-3a10.21 10.21 0 01-8.07 4.17c-6.4 0-11.14-4.64-11.14-12.93 0-8.14 4.68-12.93 11.14-12.93a10 10 0 018.07 4.12v-3.5h5.47v23.9c0 9.08-6.72 11.53-12.91 11.53-4.34 0-7.48-.94-10.55-3.76zm18-14.65v-9.38a8.15 8.15 0 00-6.46-3.39c-4.32 0-7.08 3.23-7.08 8.08s2.76 8.08 7.08 8.08a8.15 8.15 0 006.42-3.39zm10.54-23.46a3.41 3.41 0 013.39-3.39 3.39 3.39 0 010 6.78 3.41 3.41 0 01-3.39-3.39zm.68 31.65v-25.19h5.47v25.19zm9.56-12.62c0-7.3 5.31-13.19 12.75-13.19s12.39 5.79 12.39 13.71v1.3h-19.42a7.63 7.63 0 008 6.94 10.59 10.59 0 007.13-2.77l2.5 3.6a14.63 14.63 0 01-10.2 3.65c-7.53 0-13.15-5.26-13.15-13.24zm12.75-8.71c-4.68 0-6.82 3.6-7.08 6.68h14.16a6.73 6.73 0 00-7.08-6.68zm14.34 18.04l2.5-4a13 13 0 008.54 3.54c3.28 0 4.94-1.4 4.94-3.38 0-5-15.2-1.41-15.2-11.06 0-4.12 3.54-7.66 9.89-7.66a14.38 14.38 0 019.79 3.54l-2.29 3.86a10.14 10.14 0 00-7.45-3c-2.86 0-4.68 1.3-4.68 3.07 0 4.49 15.2 1.15 15.2 11.16 0 4.43-3.7 7.82-10.46 7.82a15.26 15.26 0 01-10.78-3.89z" fill="#229137"/></svg>